<svg xmlns="http://www.w3.org/2000/svg" xmlns:xlink="http://www.w3.org/1999/xlink" width="414" height="1589" viewBox="0 0 414 1589">
  <defs>
    <clipPath id="clip-path">
      <rect id="Rectangle_137" data-name="Rectangle 137" width="414" height="1589" transform="translate(-122 -40)" fill="#042468"/>
    </clipPath>
  </defs>
  <g id="abstract-lines" transform="translate(122 40)" clip-path="url(#clip-path)">
    <g id="Whangaehu" transform="matrix(-1, -0.017, 0.017, -1, 1840.768, 1772.299)">
      <path id="Shape" d="M1185.426,765.222c.107-27.918,42.687-59.313,60.877-75.5,35.964-32.014,73.369-61.577,110.426-91.613s74.216-59.99,109.553-92.966c22.944-21.4,49.9-45.514,65.465-76.078,33.15-65.136-71.368-55.463-98.441-56.888-68.874-3.64-147.872-1.977-212.429-35.9-38.538-20.249-53.906-54.21-45.629-103.7,2.669-16.1,10.566-34.62,3.875-50.3-7.143-16.748-23.578-26.413-37.218-32.894-49.75-23.611-106.952-26.348-159.59-29.311-56.761-3.257-114.055-2.3-170.416-2.556-23.9-.106-48.857-10.584-71.615-19.1-29.834-11.163-59.313-23.7-88.9-35.825C586.289,35.977,519.213,7.951,450.351,1.2c-43.127-4.234-90.264,1.49-123.766,38.316-16.821,18.486-25.626,45.978-35.35,70.4-11.773,29.5-23.078,59.282-35.61,88.317C215.251,291.734,157.61,383.112,64.051,387.7,49.9,388.4,36,386.141,21.91,385.717c-8.971-.261-16.955,2.385-20.29,13.839-8.384,28.733,17.969,74.092,28.774,96.89,23.658,49.9,50.338,97.569,75.327,146.467,16.534,32.34,45.155,76.535,45.455,115.828.267,35.01-37.885,60.316-58.655,77.56-19.462,16.146-54.727,38.74-56.861,71.584-1.034,15.925,7.57,29.124,16.555,39.367C67.962,965.165,86.1,977.8,100.271,998.238c23.231,33.529,42.641,79.661,39.485,124.841-2.188,31.306-16.821,51.808-35.437,71.406-7.823,8.24-14.174,14.069-14.587,27.447-.667,21.243,6.15,43.722,11.764,63.418,20.09,70.483,48.623,138.641,80.369,202.28,15.861,31.8,33,63.507,54.026,90.637,13.776,17.813,32.352,39.016,53.358,38.991,24.325,0,50.064-10.715,73.709-18.727,44.166-14.972,87.794-32.282,131.248-50.04q150.739-61.627,298.644-133.236c69.453-33.684,140.381-67.419,205.68-112.2a236.256,236.256,0,0,0,35.9-30.622c11.906-12.159,26.68-17.6,41.66-21.649,92.979-25.167,194.842-5.846,288.206,6.269,23.7,3.069,47.4,6.156,71.161,8.3,20.43,1.849,44.889,7.149,64.745-.815,39.126-15.673,4.922-73.441-9.537-96.976-50.91-82.878-116.6-153-177.479-224.581-28.947-34.091-58.114-68.092-85.488-104.112C1213.438,820.149,1185.333,789.7,1185.426,765.222Z" transform="translate(1871.315 2117.46) rotate(180)" fill="none" stroke="#5be7c3" stroke-miterlimit="10" stroke-width="5"/>
      <path id="Shape-2" data-name="Shape" d="M1116.489,704.175c15.605-29.543,42.984-51.378,65.711-71.927,32.7-29.583,66.438-57.522,99.663-86.267,31.417-27.185,62.9-54.673,91.994-85.543,17.74-18.824,40-41.335,48.4-69.176,18.228-60.347-79.833-51.191-104.041-52.769-60.184-3.907-128.412-4.8-184.095-36.576-34.767-19.841-49.051-52.745-41.636-98.426,2.563-15.8,7.182-29.3,1.335-45.021-6.762-18.2-22.313-29.543-36.569-37.551C1012.6,95.828,959.807,90.5,911.4,86.061c-50.011-4.582-102.117-7.81-150.523-4.46-19.356,1.335-41.635-6.242-60.8-12.053C670.6,60.595,641.431,50.271,612.1,40.664,552.5,21.132,491.344,2.316,429.339.175,384.573-1.371,337.9,7.011,300.655,39.41c-37.744,32.854-54.491,83.785-75.426,132.2-36.149,83.7-84.972,185.474-168.6,203.159-12.681,2.686-24.869,1.229-37.537,1.888-6.515.334-13.93,1.392-17.233,9.229-8.577,20.346,14.927,57.547,22.835,73.131,21.852,43.068,46.421,84.026,69.321,126.267,18.189,33.538,41.241,70.8,48.277,110.56,8.537,48.241-47.242,82.572-66.858,116.542-34.006,58.905,30.422,92.468,62.186,120.554,36.477,32.244,66.584,91.069,33.886,140.957-12.508,19.079-27.9,30.447-33.486,55.341-8.737,38.934-2.129,83.426,4.959,121.913,10.676,57.856,27.58,115.085,50.552,167.374,16.459,37.436,43.765,96.139,83.751,91.737,26.918-2.938,54.283-13.673,80.494-23.162,39.245-14.2,78-30.389,116.543-47.2,88.987-38.7,176.983-81.379,263.248-128.321,58.864-32.041,223.055-162.981,235.41-167.651,36.836-13.917,78.719-11.467,116.7-9.31,50.515,2.867,100.784,10.287,151.01,17.164,23.908,3.255,47.937,7.235,71.966,8.839,17.1,1.14,39.572,2.117,54.557-10.018,29.247-23.675-3.337-77.844-16.813-100.761-41.282-70.259-93.5-131.1-142.466-193.311C1183.9,825.981,1159.5,795.49,1137.69,762.5,1128.9,749.172,1106.844,722.422,1116.489,704.175Z" transform="translate(1819.922 2061.12) rotate(180)" fill="none" stroke="#5acef2" stroke-miterlimit="10" stroke-width="5"/>
      <path id="Shape-3" data-name="Shape" d="M1060.24,655.436c42.617-59.115,97.95-103.686,148.715-153.058,25.48-24.789,41.8-59.566,63.779-89.089,11.431-15.353,25.7-34.769,27.909-56.171,5.886-57.253-82.5-49.511-108.951-51.685-51.145-4.217-108.925-7.414-155.325-36.633-28.349-17.861-42.31-47.175-37.011-85.707,2.349-17.1,6.006-31.619,0-48.4-6.086-17-18.765-29-31.606-38C930.853,70.817,885,62.546,843.456,56.383A823.83,823.83,0,0,0,696.553,48c-42.977,1.376-85.747-14.1-127.71-24.3C513.253,10.193,456.655-1.6,399.77.179,354.844,1.6,309.564,12.724,271.16,42.3c-39.027,30.121-62.491,75.2-83.646,123.852C155.535,239.7,115.681,338.245,45.523,366.176c-10.2,4.07-19.714,4.518-30.238,5.227-5.112.342-11.712.448-14.248,6.952-6.1,15.664,16.447,46.03,22.74,56.607,20.087,33.788,41.86,66.05,62.45,99.386,19.219,31.121,40.155,63.555,52.1,100.025,19,58.084-41.742,92.046-40.036,147.392,1.061,34.362,28.028,59,49.384,76.051,26.3,20.962,64.157,34.744,77.312,73,9.8,28.493-5.579,45.078-17.424,66.7-20.073,36.633-21.442,86.291-19.353,128.7,2.816,57.3,13.821,115.451,32.553,168.121,8.482,23.88,18.878,48.714,34.184,67.261,14.345,17.381,27.918,21.834,47.084,18.276,58.673-10.909,117.914-41.314,174.182-68.471,70.692-34.125,140.41-71.8,208.046-114.19,46.121-28.908,93.282-59.492,133.763-99.43,10.551-10.412,21.352-21.727,29.07-35.461,5.832-10.322,8.3-18.846,18.139-24.739,29.136-17.462,69.665-12.895,100.883-11.08,49.922,2.89,99.595,10.583,149.206,17.511,28.95,4.07,83.486,16.875,106.6-13.84,19.954-26.523-4.124-71.744-16.424-95.108-31.111-59.085-71.133-110.941-108.264-164.336-17.018-24.47-21.9-39.217-35.953-66.422-1.677-3.239-3.825-6.97-5.845-11.1-2.079-4.25-3.959-8.959-4.485-13.45C1049.836,670.092,1055.008,662.725,1060.24,655.436Z" transform="translate(1772.459 2017.622) rotate(180)" fill="none" stroke="#5be7c3" stroke-miterlimit="10" stroke-width="5"/>
      <path id="Shape-4" data-name="Shape" d="M978.526,593.052c39.38-52.271,86.822-95.214,129.1-144.13,18.955-21.932,38.1-44.938,52.541-71.693,7.769-14.387,16.014-32.5,13.876-50.381-6.147-51.326-78.839-46.69-108.207-49.7-43.636-4.413-93.768-8.861-132.356-36.541-25.276-18.127-34.754-44.9-30.035-79.424,5.066-37.036-6.26-63.921-32.038-84.582C839.088,50.722,798.293,40.172,760.77,32.677a626.045,626.045,0,0,0-136.785-11.9c-44.539,1.043-87.69-8.066-131.934-13.988C433.389-1.054,372.844-4.924,314.843,11.157c-50.5,14-96.112,44.865-130.306,92.59-35.715,49.811-53.4,112.566-82.4,167.672-18.09,34.372-43.311,79.84-77.106,93.2-11.269,4.456-31.817-1.556-22.814,20.364C7.367,397.522,17,408.52,24.608,418.769c12.295,16.563,25,32.669,37.5,49,26.644,34.82,55.178,70.384,75.148,111.613,25.162,51.912-12.241,91.865-7.682,144.5,2.45,28.327,18.585,50.935,35.662,68.695,11.046,11.5,23.132,21.467,35.475,30.762,12.883,9.714,28.136,17.114,39.374,29.668,16.014,17.866,9.064,39.016,6.061,62.112a608.472,608.472,0,0,0-3.46,122.758c3.658,50.177,12.234,101.787,30.3,147.386,7.029,17.752,15.932,36.576,29.154,48.474s26.9,11.088,42.049,7.5c44.939-10.591,89.786-35.236,132.416-58.593,53.356-29.239,105.664-61.916,155.616-99.092,34.48-25.663,69.075-53.387,97.921-88.178,8.39-10.127,16.372-20.97,22.826-33.077,4.432-8.3,6.808-19.015,13.229-25.255,20.09-19.479,60.424-13.663,83.985-12.53,47.022,2.257,93.3,12.987,140.265,15.593,25.63,1.425,65.77,5.01,84.593-21.622,17.7-25.036,1.669-64.467-8.911-88.589-20.791-47.431-48.723-89.69-73.759-133.781-10.292-18.144-21.572-37.126-28.24-57.844C958.2,619.817,968.435,606.454,978.526,593.052Z" transform="translate(1707.212 1951.386) rotate(180)" fill="none" stroke="#5acef2" stroke-miterlimit="10" stroke-width="5"/>
      <path id="Shape-5" data-name="Shape" d="M911.511,547.449c31.345-46,69.132-86.828,100.7-133.573,18.48-27.375,50.305-73.4,36.014-111.99C1032.549,259.477,977.9,258.321,946.3,254.9c-37.6-4.068-81.753-9.625-113.935-36.1-10.177-8.371-18.847-19.452-22.522-34.047-3.934-15.619.367-29.287.927-44.923,1.173-32.8-14.872-59.135-36.107-77.22C744.657,37.041,707.13,24.952,671.684,16.523A517.623,517.623,0,0,0,549.8,2.53C510.7,2.694,472.021,1.636,432.887.415,381.708-1.212,329.809,1.415,280.165,18c-48.9,16.351-93.367,47-128.293,92.075C117.8,154.068,94.811,207.831,74.677,262.6,63.252,293.682,43.952,340.135,16.7,355.836c-12.124,6.991-24.017,6.511-11.13,24.685C21.8,403.406,43.666,421.767,62.46,441.34c27.11,28.246,54.9,57.045,77.655,90.627,14.532,21.445,21.008,42.254,20.007,70.021-.774,21.155-4.281,42.083-2.508,63.317,4.152,49.836,36.32,84.012,64.757,115.838,18.293,20.469,35,36.082,44.416,65.2,11.137,34.412,15.817,71.85,23.256,107.58,8.176,39.236,17.62,80.051,35.466,114.61,15.887,30.768,35.212,44.565,64.124,36.271,45.1-12.919,89.562-44.743,129.6-74.185,40.755-29.953,80.81-63.634,114.582-104.806,18.234-22.233,30.678-48.34,46.871-72.225,20.364-29.987,66.444-18.63,93.828-16.091C819.968,841.706,963,873.239,949.8,771.108c-5.509-42.629-27.2-81.971-43.069-119.588-6.576-15.611-16.092-34.347-17.579-52.237C887.535,579.8,902.087,561.3,911.511,547.449Z" transform="translate(1649.882 1904.928) rotate(180)" fill="none" stroke="#ff8062" stroke-miterlimit="10" stroke-width="5"/>
      <path id="Shape-6" data-name="Shape" d="M848.5,517.742c23.953-41.682,52.619-81.061,73.172-126.081C935,362.5,948.1,323.55,930.9,292.7c-19.413-34.813-62.219-42.928-93.672-47.364-32.406-4.566-71.092-8.409-97.579-34.8-8.426-8.408-15.373-19.746-16.667-33.323-1.246-13.023,2.274-26.046,1.107-39.306-2.614-29.774-17.406-54.307-36.477-72.1C631.189,13.166,547.217,1.462,479.144.085,445.071-.6,410.005,2.992,375.712,5.563c-44.5,3.337-89.068,10.5-131.505,27.764C153.974,70.02,93.495,151.4,51.255,252.662c-13.295,31.875-23.466,66.361-44.3,91.976-10.74,13.227-8.393,22.726,2.587,34.788,17.166,18.852,38.106,33.258,57.16,48.991,27.1,22.376,54.779,45.085,78.745,71.888,16.52,18.477,28.247,36.28,31.806,63.985,2.54,19.754,1.946,39.884,3.474,59.76,2.906,37.762,12.86,75.233,30.48,106.554,14,24.825,30.667,47.388,47.893,68.9a519.286,519.286,0,0,1,58.339,89.706c22.546,44,54.226,125.169,107.331,103.689,58.572-23.7,113.472-83.927,151.05-142.278,12.62-19.592,22.98-43.62,40-58.067,25.48-21.594,51.333-20.837,81.639-20.747,45.374.123,144.105,12.144,145.172-70.813.42-32.867-11.233-63.944-16.813-95.558C819.526,570.03,832.139,546.149,848.5,517.742Z" transform="translate(1603.419 1871.315) rotate(180)" fill="none" stroke="#f1b170" stroke-miterlimit="10" stroke-width="5"/>
      <path id="Shape-7" data-name="Shape" d="M793.094,488.836c23.692-54.325,76.826-143.594,36.413-204-21.345-31.93-59.1-43.923-90.769-51.072-25.487-5.783-56.223-7.955-75.48-32.47-14.154-18.024-7.871-44.256-13.294-66.82-6.73-27.976-22.179-50.861-41.162-68.063C555.753,18.328,481.993,3.573,418.179.433,351.9-2.82,278.877,12.394,216.51,41.671,138.747,78.184,80.489,147.322,39.747,234.878c-7.513,16.162-14.348,32.746-21.565,49.1C13.333,294.955,6.142,305.569,2.32,317.111c-6.363,19.245,1.134,34.976,13.154,47.517,17.29,18.057,38.528,30.909,58.238,44.46,26.955,18.545,54.509,36.757,79.583,58.515,16.849,14.641,34.485,30.413,40.515,55.814,4.115,17.325,4.969,35.675,4.822,53.618-.32,38.473,1.335,69.585,16.049,104.82C238.894,739.7,276.128,791.719,315.462,835c30.87,33.966,79.716,86.731,124.694,64.021,40.355-20.334,63.959-69.007,90.551-108.358,12.927-19.13,27.448-36.6,44.51-50.21,21.512-17.154,41.763-24.353,67.25-27.159,42.9-4.726,107.578-5.954,120.839-68.747,4.9-23.173,2.1-47.176,4.669-70.65C771.329,542.853,781.14,516.239,793.094,488.836Z" transform="translate(1565.855 1838.693) rotate(180)" fill="none" stroke="#5be7c3" stroke-miterlimit="10" stroke-width="5"/>
      <path id="Shape-8" data-name="Shape" d="M733.86,459.215c16.871-59.443,39.036-134.357-1.713-187.188-19.738-25.594-47.5-39.9-74.367-50.593-19.245-7.662-49.8-9.918-61.6-33.475-8.666-17.336-9.866-41.252-17.7-59.826A170.308,170.308,0,0,0,532.234,65.1C482.36,22.2,417.4,5.616,358.16.869,229.441-9.432,98.47,72.608,29.59,207.584,9.052,247.817-17.458,290.641,15.731,331.745,51.968,376.587,106.555,397.6,149.8,429.459c16.525,12.165,37.582,26.79,46.8,48.816,5.546,13.241,5.926,29.854,6.179,44.427.666,37.123,3.193,70.509,15.421,105.148,18.891,53.532,49.015,102.917,83.15,143.372,29.77,35.275,72.225,76.73,115.462,51.3,33.15-19.543,54.172-61.023,79.931-91.6,28.668-34.053,64.113-57,103.042-68.21,37.869-10.874,79.4-18.216,99.363-64.434,6.846-15.854,14-36.378,16.565-53.93a639.527,639.527,0,0,1,18.138-85.134Z" transform="translate(1531.257 1807.059) rotate(180)" fill="none" stroke="#ff8062" stroke-miterlimit="10" stroke-width="5"/>
      <path id="Shape-9" data-name="Shape" d="M674.754,428c7.81-60.024,8.673-122.614-27.591-169.922-16.925-22.07-38.319-37.751-59.953-51.957-15.916-10.453-32.355-19.27-44.243-36.407-11.014-15.867-19.386-34.291-30.02-50.573a232.591,232.591,0,0,0-49.707-55.319C415.874,26.137,358.256,8.511,303.133,2.4,276.448-.574,247.5-2.121,221,5.98c-25.6,7.815-50.91,20.174-74.443,34.583-50.032,30.6-93.395,75.42-124.829,132.082C.174,211.511-11.485,249.3,16.428,288.73,47.9,333.173,97.235,357.694,137.9,386.538c27.892,19.783,59.153,39.175,64.363,81.216,4.152,33.452,7.518,65.2,18.252,96.823,15.975,46.641,39.464,88.89,69.073,124.242,27.078,32.207,61.334,59.536,100.066,42.334,30.687-13.653,54.5-44.239,81.308-66.106,29.88-24.423,62.708-37.889,97.279-48.716,31.067-9.77,60.32-24.782,80.4-56.654a159.073,159.073,0,0,0,11.595-20.89c4.043-9.292,3.729-18.512,4.523-28.934C666.829,482.35,671.221,455.167,674.754,428Z" transform="translate(1499.621 1775.427) rotate(180)" fill="none" stroke="#f1b170" stroke-miterlimit="10" stroke-width="5"/>
      <path id="Shape-10" data-name="Shape" d="M613.821,394.426c-.667-57.014-11.9-110.9-42.675-155.33-13.156-19.008-28.866-34.663-43.342-52.081-11.656-14.037-22.671-27.086-36.074-38.659C459.938,120.957,434.1,85.5,400.312,61.1c-45.1-32.617-96.767-50.646-148.03-57.855C227.25-.272,201.392-1.5,176.065,2.475c-21.748,3.416-42.582,15.411-61.906,27.679C76.286,54.195,39.513,88.361,14.921,131.587-39.3,226.883,67.6,296.173,122.462,336.748c25.232,18.665,63.786,40.282,74.122,77.254,7.388,26.412,11.889,53.272,21.4,78.868,25.559,68.739,77.443,149.589,146.587,138.825,29.581-4.6,56.545-23.28,84.166-35.822,28.439-12.916,57.789-20.116,87.347-28.017,27.626-7.38,49.644-17.882,67.487-46.039,8.528-13.444,7.775-29.543,8.535-46.038C613.355,448.68,614.122,421.429,613.821,394.426Z" transform="translate(1468.977 1746.755) rotate(180)" fill="none" stroke="#5be7c3" stroke-miterlimit="10" stroke-width="5"/>
      <path id="Shape-11" data-name="Shape" d="M553.619,357.467c-11.105-86.059-52.361-180.01-113.024-229.988-71.35-58.791-148.651-108.3-233.9-122.529C167.167-1.649,123.869-4.9,86.574,16.684,58.19,33.1,25.22,57.633,9.6,92.133c-38.217,84.39,46.788,151.571,95.219,190.612,26.074,21.018,59.264,41.5,78.916,72.192,11.4,17.794,17.222,41.337,26.428,60.881,27.9,59.23,73.818,107,131.019,115.546,26.448,3.946,53.085-.936,79.338-4.817,26.869-3.971,54.073-6.129,80.773-11.665,21.315-4.427,46.434-11.921,54.285-39.758C565.475,440.042,558.153,392.611,553.619,357.467Z" transform="translate(1436.356 1717.102) rotate(180)" fill="none" stroke="#5acef2" stroke-miterlimit="10" stroke-width="5"/>
      <path id="Shape-12" data-name="Shape" d="M495.925,317.94c-16.2-80.909-50.5-159.832-108.174-208.133-30.582-25.612-66.082-43.292-100.167-60.761-38.635-19.8-79-35.165-120.227-42.788C116.024-3.238,32.884-11.8,6.065,59.584c-26.62,70.852,40.647,133.559,80.425,169.3,25.5,22.893,52.8,43.9,77.164,68.929,13.213,13.568,23.391,29.245,34.572,45.158,30.9,44.089,74.958,79,119.863,97.629,43.517,18.064,97.357,26.061,143.3,20.091,19.822-2.57,33.991-11.222,39.986-35.833C509.679,390.641,502.622,351.363,495.925,317.94Z" transform="translate(1405.707 1691.4) rotate(180)" fill="none" stroke="#f1b170" stroke-miterlimit="10" stroke-width="5"/>
      <path id="Shape-13" data-name="Shape" d="M433.47,276.377c-16.093-71.237-50.8-136.3-101.438-179.059-56.757-47.93-129.84-74.563-197.017-88.106C99.309,2.018,21.934-17.486,3.736,38.335s34.416,110.83,64.7,141.113c36.752,36.7,76.376,72.13,115.956,105.056,34.379,28.628,71.073,57.9,108.322,80a354.6,354.6,0,0,0,65.386,30.6c16.66,5.741,37.844,14.306,55.311,10.032C457.461,394.344,441.166,310.438,433.47,276.377Z" transform="translate(1370.125 1671.628) rotate(180)" fill="none" stroke="#ff8062" stroke-miterlimit="10" stroke-width="5"/>
      <path id="Shape-14" data-name="Shape" d="M366.685,233.3C331.375,98.579,219.5,32.326,111.781,9.227,86.75,3.866,16.585-15.462,2.591,25.691c-13.562,39.9,29.561,87.221,49.748,109.641C114.893,204.8,192.175,256.311,265.41,307.34c22.859,15.928,64.086,50.493,92.445,34.549C388.638,324.54,374,261.233,366.685,233.3Z" transform="translate(1336.514 1649.882) rotate(180)" fill="none" stroke="#5acef2" stroke-miterlimit="10" stroke-width="5"/>
      <path id="Shape-15" data-name="Shape" d="M291.962,182.659C261.254,83.448,171.937,26.548,89.819,7.785,69.706,3.2,18.623-11.1,3.389,16.59c-14.1,25.61,19.545,62.719,32.128,77.465,28.021,32.836,61.229,59.887,94.036,85.889C159.887,204,190.546,228.658,222.466,249c16.811,10.71,48.34,33.561,67.445,17.025C310.484,248.242,298.78,204.688,291.962,182.659Z" transform="translate(1297.959 1625.172) rotate(180)" fill="none" stroke="#5acef2" stroke-miterlimit="10" stroke-width="5"/>
      <path id="Shape-16" data-name="Shape" d="M204.655,126.979C181.249,62.191,118.564,20.119,63.268,6.138,48.389,2.382,16.23-7.354,3.678,9.949-7.877,25.883,10.746,49.244,19.011,60.033,55.645,107.851,109.289,150.566,158.44,176.8c12.357,6.6,34.572,19.542,47.285,6.228C218.766,169.36,210.031,141.857,204.655,126.979Z" transform="translate(1250.509 1598.478) rotate(180)" fill="none" stroke="#5be7c3" stroke-miterlimit="10" stroke-width="5"/>
      <path id="Shape-17" data-name="Shape" d="M108.99,66.158C95.8,33.986,61.332,9.715,32.779,1.983c-20.1-5.437-44.249-.739-26.737,27.264,17.4,27.8,49.679,53.177,77.039,64.429C103.955,102.258,120.316,93.792,108.99,66.158Z" transform="translate(1197.128 1564.872) rotate(180)" fill="none" stroke="#f1b170" stroke-miterlimit="10" stroke-width="5"/>
      <path id="Shape-18" data-name="Shape" d="M637.756,505.465c.846-63.563,28.519-129.615,14.853-194.377-11.223-53.19-67.723-57.632-101.622-81.728-26.935-19.145-42.221-53.059-56.787-85.6-13.087-29.213-24.843-59.306-38.63-88.04C446.645,37.145,431.319.669,411.964.011,393.435-.624,376.443,27.8,365.68,44.6c-14.037,21.9-26.475,45.252-40.1,67.5-22.965,37.534-50.515,65.316-82.07,91.609q-53.856,44.88-109.49,86.689c-27.308,20.584-54.8,41.015-81.051,63.633C36.507,368.233.168,394.857,0,421.021c-.08,12.484,9.611,26.31,16.145,36.289C27.2,474.2,39.8,489.647,52.445,504.76c23.544,28.148,48.088,55.019,72.361,82.216,31.515,35.294,61.613,70.01,89.313,110.085,28.64,41.478,56,84.323,83.921,126.581,18.909,28.628,37.8,60.778,65.072,78.345,34.161,21.959,62.2-1.2,96.749-1.464,29.719-.236,27.527-84.3,31.3-107.672,3.79-23.659,12.142-45.683,15.379-69.4,4.036-29.6,4.09-59.891,5.082-89.812,1.2-36.6,1.681-71.44,33.728-85.4,18.237-7.93,37.96-9.6,56.841-14.347C614.424,530.816,637.49,525.546,637.756,505.465Z" transform="translate(656.394 1781.357) rotate(180)" fill="none" stroke="#ff8062" stroke-miterlimit="10" stroke-width="5"/>
      <path id="Shape-19" data-name="Shape" d="M590.524,473.4c3.115-53.283,21.519-121.47,4.115-176.467-14.869-47-61.369-53.091-92.68-77.779-25.849-20.364-37.355-53.686-50.275-86.421-10.366-26.261-20.418-52.774-32.185-78.194C410.828,35.8,397.586,4.176,379.556.3c-16.212-3.487-33.593,24.436-42.691,38.641-13.274,20.738-24.628,43.26-36.355,65.308-20.6,38.73-41.708,73.56-71.858,102.011-30.291,28.569-63.43,49.938-96.923,72.176-26.2,17.4-52.27,35.3-77.165,55.388C36.018,348.776,9.356,367.917.871,394.585c-6.722,21.1,27.349,56.1,37.395,68.461C58.944,488.452,80.857,512.3,102.81,536c26.762,28.883,54.378,54.142,78.012,87.091,42.271,58.9,77.6,132.263,132,176.047,32.8,26.4,69.313,33.157,105.8,29.207,14.449-1.564,17.917-26.464,19.738-40.987,3.029-24.126,3.409-48.668,5.734-72.892,2.182-22.676,7.024-44.221,10.926-66.457,3.949-22.53,5.056-45.613,7.965-68.3,1.8-14.083,3.582-30.472,11.46-41.794,8.152-11.721,21.6-16.632,33.353-20.364C529.87,510.615,588.324,511,590.524,473.4Z" transform="translate(623.773 1760.597) rotate(180)" fill="none" stroke="#5be7c3" stroke-miterlimit="10" stroke-width="5"/>
      <path id="Shape-20" data-name="Shape" d="M522.286,424.406c5.239-48.905,12.573-109.817-8.769-154.875-17.446-36.842-54.652-44.789-81.228-68.795-22.1-19.963-30.453-51.712-41.42-81.216-9-24.2-18.053-48.507-28.964-71.536C353.629,30.52,342.964,6.839,326.533.747c-14.048-5.206-29.919,18.116-37.707,29.724-13.261,19.784-24.073,41.95-34.811,63.824-17.565,35.792-33.729,74.025-58.729,103.139-24.292,28.252-53.15,44.927-82.548,63.678C90.221,275.477,67.843,290.4,46.627,307.528c-16.291,13.148-36.477,28.723-44.968,50.6-7.341,18.864,11.506,41.194,20.923,54.5C38.131,434.591,55.39,454.74,72.4,474.971c18.366,21.825,38.708,41.959,56.48,64.321,37.374,47.055,67.232,99.161,113.3,135.214,29.83,23.353,69.974,44.568,105.238,40.754,25.36-2.749,23.693-71.259,26.128-93.15,4-35.792,11.739-73.4,24.022-106.367,10.552-28.252,35.625-36.964,58.69-43.3,14.449-3.978,29.592-6.129,43.567-12.275C516.007,453.04,520.09,444.906,522.286,424.406Z" transform="translate(574.339 1733.907) rotate(180)" fill="none" stroke="#5acef2" stroke-miterlimit="10" stroke-width="5"/>
      <path id="Shape-21" data-name="Shape" d="M444.451,367.871c3.119-41.347,2.418-90.24-17.788-126.007-17.708-31.328-49.234-39.576-71.658-64.255-17.5-19.254-24.374-50.648-33.784-76.11C309.719,70.367,293.6,12.866,264.585,1.15,237.6-9.742,209.366,59.834,199.593,80.58c-15.47,32.837-28.408,68.849-47.17,99.174-16.158,26.107-37.806,40.539-60.784,56.05-29.3,19.808-73.775,43.3-89.439,81.9-11.676,28.767,26.3,71.533,39.255,91.464,13.56,20.821,23.772,45.5,37.762,65.586,22.082,31.7,57.864,57.215,87.408,76.689,28.727,18.943,66.025,39.909,98.607,38.66,21.415-.816,25.489-41.184,30.058-60.9,6.546-28.032,15.249-53.152,33.946-72.218,19.029-19.409,41.46-28.554,65.038-36.558,12.1-4.079,25.91-7.261,36.737-15.5C442.976,395.961,443.25,383.764,444.451,367.871Z" transform="translate(514.044 1700.295) rotate(180)" fill="none" stroke="#f1b170" stroke-miterlimit="10" stroke-width="5"/>
      <path id="Shape-22" data-name="Shape" d="M364.752,304.5c-.173-35.721-6.864-73.812-26.7-101.365-16.524-22.951-42.391-30.622-58.209-54.084-12.53-18.575-18.908-44.651-27.3-66.222-10.26-26.434-24.767-72.611-50.28-81.784-24.9-8.93-46.924,41.931-56.472,62.057-13.981,29.51-25.3,60.791-39.407,90.22-11.052,23.088-24.567,37.97-42.564,52.851-21.125,17.478-50.6,36.841-61.883,65.759C-6.2,292.865,13.494,326.32,20.644,344.766c4.793,12.388,9.182,24.972,11.592,38.4,1.878,10.457,2.064,20.134,7.5,29.113,13.692,22.582,43.719,25.531,64.092,32.976,27.057,9.88,55.767,21.107,84.083,23.251,17.4,1.34,26.285-18.234,36.218-32,11.738-16.277,28.355-27.984,42.87-40.267C286.157,380,307,369.9,328.568,359.56c9.727-4.668,21.155-9.247,28.689-18.526C365.125,331.411,364.812,317.39,364.752,304.5Z" transform="translate(455.716 1660.755) rotate(180)" fill="none" stroke="#ff8062" stroke-miterlimit="10" stroke-width="5"/>
      <path id="Shape-23" data-name="Shape" d="M296.834,244.739c-3.439-30-14.156-58.674-32.257-79.882-13.876-16.282-32.3-25.45-43.44-45.013-10.38-18.237-17.608-38.972-26.179-58.47C185.888,40.759,172.412,6.3,151.492.7,128.946-5.345,111.578,29.41,101.96,48.673,89.811,73.016,80.58,99.205,69.717,124.387a215.5,215.5,0,0,1-30.968,50.923c-12.95,15.8-30.51,30.941-37.063,52.666-5.792,19.246,5.042,42.53,6.958,62.045,2.046,20.849-1.539,42.75,9.8,60.652,23.39,36.921,82.1,30.075,115.662,30.864,33.116.815,59.742-21.778,86.54-43.271,17.7-14.191,36.135-26.206,54.284-39.428C293.434,285.347,299.859,271.141,296.834,244.739Z" transform="translate(410.244 1622.201) rotate(180)" fill="none" stroke="#5acef2" stroke-miterlimit="10" stroke-width="5"/>
      <path id="Shape-24" data-name="Shape" d="M248.3,190c-10.17-43.462-41.933-66.563-64.639-99.407-18.579-26.888-32.509-82.573-63.8-89.94C84.34-7.7,63.074,66.078,50.723,94.547c-13.7,31.574-38.111,57.258-48.261,90.681-5.338,17.543-.753,33.913,2.087,51.448,3.114,19.263,5.454,38.944,16.2,54.442C41.914,321.617,83.236,321.4,113,322.243c30.809.872,58.064-20.028,82.612-40.887C221.648,259.266,258.718,234.577,248.3,190Z" transform="translate(382.567 1584.641) rotate(180)" fill="none" stroke="#5acef2" stroke-miterlimit="10" stroke-width="5"/>
      <path id="Shape-25" data-name="Shape" d="M207.544,142.629c-11.459-30.965-35.54-56.139-55.081-79.9C136.152,42.912,118.609,3.03,93.744.187,64.517-3.165,46.8,39.421,35.3,65.539c-11.319,25.656-27.628,52.75-33.9,80.912-6.535,29.337,10.869,68.852,27.467,89.612,18.512,23.146,48.8,31.7,74.788,30.775,27.211-.939,52.178-20.067,72.787-39.915C198.482,205.71,220.871,178.575,207.544,142.629Z" transform="translate(358.842 1549.048) rotate(180)" fill="none" stroke="#ff8062" stroke-miterlimit="10" stroke-width="5"/>
      <path id="Shape-26" data-name="Shape" d="M167.023,108.133C156.076,82.378,137.1,60.59,119.607,41.157c-13.5-15-33.424-40.516-52.9-41.14C45.276-.676,27.116,20.74,18.6,42.69,10.2,64.339,1.352,91.482.1,115.233c-2.732,51.721,52.846,109.661,94.579,104.943C134.242,215.7,188.848,159.453,167.023,108.133Z" transform="translate(334.126 1520.382) rotate(180)" fill="none" stroke="#5acef2" stroke-miterlimit="10" stroke-width="5"/>
      <path id="Shape-27" data-name="Shape" d="M130.66,82.556C115.559,49,78.879,1.159,44.921.023,5.943-1.276-3.843,51.961,1.239,90.541c5.161,39.375,50.1,96.368,85.933,88.668C122.145,171.694,148.556,122.353,130.66,82.556Z" transform="translate(312.38 1497.645) rotate(180)" fill="none" stroke="#5be7c3" stroke-miterlimit="10" stroke-width="5"/>
      <path id="Shape-28" data-name="Shape" d="M98.422,64.281C85.637,36.185,58.355,1.09,29.9.026-4.009-1.231-3.367,43.719,4.321,71.69c8,29.044,43.207,78.656,72.9,70.823C106.084,134.867,110.674,91.21,98.422,64.281Z" transform="translate(295.576 1484.796) rotate(180)" fill="none" stroke="#ff8062" stroke-miterlimit="10" stroke-width="5"/>
      <path id="Shape-29" data-name="Shape" d="M68.174,46.217C59.735,26.17,38.617.83,18.535.02-6.008-.955-1.236,34.695,5.1,51.9c7.538,20.474,32.8,56.049,54,50.284C79.981,96.509,75.138,62.736,68.174,46.217Z" transform="translate(278.77 1469.965) rotate(180)" fill="none" stroke="#5acef2" stroke-miterlimit="10" stroke-width="5"/>
      <path id="Shape-30" data-name="Shape" d="M293.662,575.835C347.984,616.058,409.394,649.26,467.3,683.008c84.627,49.307,170.5,97.3,259.423,134.025,47.675,19.692,109.452,48.078,160.606,32.653,18.7-5.635,35.76-22.691,52.528-33.772,23.124-15.279,46.588-29.8,70.012-44.356,46.988-29.175,94.122-58.057,140.3-89.1,22.237-14.954,43.814-33.787,66.964-46.545,13.529-7.461,29.719-3.97,44.174-3.5,33.486,1.1,66.951,3.181,100.416,4.955,40.934,2.164,81.96,4.466,122.94,3.612,18.486-.4,63.75,3.612,73.925-15.817,5.475-10.463-7.428-29.329-13.409-38.059-10.982-16.044-23.6-30.5-36.059-44.812-28.8-33.1-59.4-64.614-85-101.584-13.156-19-30.392-42.225-21.8-68.17,8.669-26.205,23.684-48.9,32.845-75.012,10.549-30.052,14.927-61.327,19.9-93.2,3.687-23.553,12.276-44.421,20.35-66.134,8.922-24,18.163-48.2,24.358-73.515,4.094-16.719,10.7-46.8-3.621-57.382-20.35-15.052-58.51-2.867-81.707,1.57-32.058,6.118-63.884,13.912-95.856,20.624-23.21,4.881-46.5,10.234-70.1,10.8-38.039.919-76.206-2.262-114.145-5.223-70.252-5.483-140-12.919-210.488-12.919-61.755,0-204.467,87.19-237.873,102.544-66.677,30.645-135.129,59.7-198.226,100.477-17.069,11.04-43.341,25.75-52.322,48.473-5.541,14-2.994,22.1-16.063,31.119-17.829,12.309-40.674,17.142-60.41,22.651-31.786,8.868-63.817,16.377-95.749,24.407-64.582,16.2-128.726,34.519-193.039,52.149-19.443,5.329-42.967,6.509-61.5,15.9-11.949,6.03-10.709,13.619-1.46,22.78,16.223,16.077,38.96,25,58.126,34.17,28.075,13.432,56.616,25.416,85.167,37.23s57.25,23.26,85.815,35.093C255.189,556.947,276.705,563.281,293.662,575.835Z" transform="translate(1658.774 854.103) rotate(180)" fill="none" stroke="#ff8062" stroke-miterlimit="10" stroke-width="5"/>
      <path id="Shape-31" data-name="Shape" d="M213.821,533.376c57.462,40.3,121.246,72.414,182.736,103.741,78.7,40.118,159.173,77.718,242.094,102.8,48.682,14.714,106.127,30.96,155.87,14.087,17.746-6.021,31-19.553,46.217-31.5,17.34-13.631,35.346-26.12,53.354-38.415q55.6-37.96,112.376-73.326c20.048-12.539,42.112-29.331,64.764-33.682,18.007-3.46,38.461,1.548,56.545,3.006,32.573,2.624,65.138,5.328,97.724,7.626,37.6,2.648,75.308,5.092,112.991,4.669,21-.236,57.055,3.667,71.908-12.9,12.958-14.453-34.219-66.727-42.516-76.659-25.91-31.009-53.16-60.536-77.276-93.7-14.252-19.553-31.606-43.336-37.614-69.253-5.115-22.088,4.755-47.252,10.584-67.673,7.29-25.575,13.171-52.086,21.641-77.123,7.543-22.307,19.548-42.179,30.091-62.458,11.6-22.307,23.343-44.979,31.952-69.318,5.275-14.974,14.006-40.053,3.521-54.326-12.112-16.457-49.445-5.7-64.791-3.361-31.132,4.823-62.023,11.993-92.942,18.414-51.353,10.657-100.312,19.978-152.6,17.745C972.346,38.857,904.313,32,836.227,28.2c-25.143-1.418-50.686-4.27-75.849-2.729-14.426.89-25.406,6.265-33.8,18.4-11.457,16.555-37.847,25.721-56.2,35.221-28.617,14.8-57.6,28.569-86.5,42.521-63.438,30.634-128.1,60.161-188.258,99.782-19.033,12.531-40.827,26.5-54.908,47.206-7.856,11.545-5.876,22.666-10.67,34.936-6.349,16.14-27.224,23.428-39.7,28.7-24.083,10.2-49.152,17.037-74.028,23.44C160.025,370.164,103.6,379.688,46.4,386.7,33,388.332-19.79,393.979,7.933,421.191,38.575,451.271,82.805,466,118.865,482.952,151.351,498.187,183.863,512.363,213.821,533.376Z" transform="translate(1534.231 820.492) rotate(180)" fill="none" stroke="#5be7c3" stroke-miterlimit="10" stroke-width="5"/>
      <path id="Shape-32" data-name="Shape" d="M150.869,474.515c54.012,35.459,113.846,61.913,172.017,87.219,70.589,30.708,142.944,58.081,216.985,73.415,46.5,9.622,97.779,17.018,143.973,1.024,31.545-10.917,55.952-40.431,83.655-60.733s56.536-39.364,86.226-55.251c18.427-9.859,38.249-19.792,58.752-18.486,49.852,3.156,99.645,10.676,149.551,14.334,33.017,2.441,66.1,4.448,99.21,3.847,19.968-.358,47.4,1.106,65.082-11.714,19.542-14.179-84.509-135.238-94.344-148.864-24.656-34.165-54.512-79.508-49.745-128.1,4.56-46.449,24.318-81.127,46.674-117.521,12.685-20.7,53.365-76.01,38.289-102.935-8.612-15.391-37-10.062-50.487-9.014-26.579,2.066-53.011,6.508-79.449,10.364C998.7,17.693,959.1,26.324,920.381,28.854c-26.96,1.757-54.078-.593-81.084-.643-38.723-.065-77.446.3-116.169.716-32.514.358-65.3,0-97.7,3.807-20.143,2.343-35.431,7.606-49.879,22.476-12.571,12.934-31.535,20.507-47.563,28.732-26.465,13.577-53.278,26.161-80,38.949-55.952,26.78-112.551,53-166.108,86.463-24.449,15.269-65.555,36.646-71.29,73.667-2.07,13.345-3.592,19.116-14.274,26.706-15.162,10.775-33.322,15.627-50.333,19.849-39.657,9.843-80.468,8.371-120.055,18.1C9.8,351.685-11.247,360.339,7.155,380.156c21.478,23.175,52.744,35.915,78.474,50.231,12.845,7.142,26.078,13.829,38.275,22.55C133.27,459.653,141.288,468.271,150.869,474.515Z" transform="translate(1391.867 769.085) rotate(180)" fill="none" stroke="#5acef2" stroke-miterlimit="10" stroke-width="5"/>
      <path id="Shape-33" data-name="Shape" d="M104.885,410.067c49.9,28.8,104.094,49.74,157.314,68.617,59.115,20.939,119.651,38.283,180.991,45.663,42.355,5.113,87.486,6.623,128.591-9.026,26-9.9,43.622-30.716,65.991-48.174,33.763-26.386,70.291-47.294,110.852-42.206q68.21,8.537,136.87,12.81c27.61,1.72,55.327,3.009,82.97,1.81,17.477-.75,39.995-2.014,55.2-11.677,20.344-12.94-56.073-111.409-65.6-125.76C934.438,266.537,917.122,229.187,907,185.09c-8.252-35.983,8.605-64.27,26-91.187,10.812-16.716,45.748-58.758,34.809-80.468-6-11.97-25.77-11.35-36.388-11.961-20.237-1.158-40.562.048-60.8.579-29.883.816-61.692-4.787-91.322-.277C713.641,11.76,648.143,20.4,582.07,27.241c-36.422,3.767-73.064,7.192-109.16,14.457-12.959,2.61-26.344,5.374-38.621,11.277-7.9,3.792-12.206,10.249-18.871,15.55-31.783,25.229-73.271,38.21-109.066,54.38C258.764,144.4,210.923,165.559,164.6,190.951c-24.364,13.356-58.392,28.7-75.157,55.961-5.066,8.236-2.906,14.828-6.092,22.741-3.667,9.132-14.8,11.856-22,14.4C45.031,289.835-23.3,298.576,8.189,332.492,23.215,348.645,42.358,359.009,59.3,371.7c6.129,4.6,12.112,9.222,17.224,15.427C85.068,397.535,93.493,403.471,104.885,410.067Z" transform="translate(1243.583 715.709) rotate(180)" fill="none" stroke="#f1b170" stroke-miterlimit="10" stroke-width="5"/>
      <path id="Shape-34" data-name="Shape" d="M100.211,363.985c98.509,46.6,213.959,78.343,321.359,72.193,35.715-2.053,74.141-8.9,105.1-32.347,18.255-13.848,32.845-29.48,54.772-34.482,15.831-3.608,32.877.488,48.8,1.971,23.065,2.15,46.142,4.073,69.241,5.629,28.635,1.9,57.364,3.361,86.053,2.582,20.5-.562,48.807.073,66.615-13.367,21.261-16.031-32.856-91.235-40.471-104.634-18.456-32.481-31.394-63.946-36.069-103.087-1.376-11.4-6.011-23.093-5.41-34.588.628-11.738,6.553-22.19,12.023-31.419,7.154-12.1,31.976-40.786,24.868-55.539-3.927-8.146-18.67-9.173-26.311-10.9-14.334-3.262-28.875-5.01-43.3-7.6C713.018,13.981,688.724-.4,664.171.009,598.144,1.084,531.161,26.076,466.456,39.8c-38.467,8.187-77.2,15.619-115.2,26.7-12.024,3.511-24.407,7.144-35.836,13.1-7.976,4.152-13.1,11.559-20.487,16.212-28.328,17.864-60.9,28.706-91.323,40.728C164.126,152.182,124.5,167.35,85.287,184,60.706,194.436,29.1,203.616,7.917,222.971c-15.47,14.136-4.9,18.361,3.262,31.525,4.168,6.712,3.206,13.327,5.016,20.926,2.589,10.854,9.9,18.666,16.752,25.691,9.451,9.7,22.045,17.695,29.771,29.586,2.725,4.187,2.6,9.384,4.8,13.034C73.933,354.36,90.948,359.606,100.211,363.985Z" transform="translate(1129.909 682.099) rotate(180)" fill="none" stroke="#ff8062" stroke-miterlimit="10" stroke-width="5"/>
      <path id="Shape-35" data-name="Shape" d="M141.678,310.807C221.631,340.1,310.59,356.782,395.1,349.041c29.4-2.7,58.988-8.963,86.379-22.727,12.462-6.242,21.816-13.2,35.472-13.576,31.685-.864,63.465,2.159,95.147,2.885,22.67.522,45.453.709,68.07-1.515,15.125-1.483,35.572-3.262,47.96-14.578,18-16.485-14.495-72.524-21.109-88.006C696.06,185.847,685.185,157.3,689.532,127.6c1.334-9.086,3.694-17.113,4-26.377.3-7.962-.527-15.312,1.787-22.922,2.861-9.437,15.582-24.079,11.208-32.766-2.981-5.931-11.822-6.209-17.7-8.106a158.513,158.513,0,0,1-27.844-12.076c-9.468-5.248-17.529-13.355-27.337-17.695C617.722.628,599.9-.031,583.163,0c-66.776.13-134.4,16.212-199.483,33.017C349.788,41.77,315.709,51.1,282.771,64.375c-10,4.033-21.337,8.083-30.131,15.531-5.487,4.636-9.208,10.447-15.442,13.938C183.943,123.62,122.375,134.678,65.84,156.182c-14.715,5.6-96.267,33.882-53.628,60.488,25.9,16.167,53.275,23.517,76.909,45.633,7.2,6.722,12,12.289,14.815,22.548,1.854,6.829-2.607,3.361,3.62,10.5C115.114,303.929,132.366,307.392,141.678,310.807Z" transform="translate(1066.639 645.517) rotate(180)" fill="none" stroke="#f1b170" stroke-miterlimit="10" stroke-width="5"/>
      <path id="Shape-36" data-name="Shape" d="M146.716,254.936c93.605,23.911,192.734,25.049,287.817,3.855,23.969-5.338,48.915-4.062,73.179-5.419,23.575-1.3,65.49,1.406,82.614-20.718,12.416-16.038-1.057-50.119-5.717-68.061-5.937-22.855-11.126-46.462-1.377-68.662,5.71-13,13.533-25.374,19.657-38.252,2.928-6.151,8.959-15.575,6.445-21.4-4.159-9.612-23.615-13.658-33.056-18.189C546.1,3.6,514.151-.1,481.89,0,422.3.189,362.41,10.134,303.959,23.62,277.07,29.828,249.8,36.45,223.866,47.239c-14.676,6.1-25.5,17.875-39.515,24.854C139.227,94.582,90.746,106.6,44.846,127.163c-13.285,5.955-62.91,25.78-37.911,49.155,24.2,22.628,59.51,19.938,84.673,41.222,2.848,2.438,6.372,5.354,8.023,9.292.976,2.356-.742,6.841,0,8.181C107.357,249.59,134.839,251.9,146.716,254.936Z" transform="translate(988.546 606.968) rotate(180)" fill="none" stroke="#5acef2" stroke-miterlimit="10" stroke-width="5"/>
      <path id="Shape-37" data-name="Shape" d="M117.4,206.506c48.022,8.04,97.1,10.034,145.932,10.54,26.691.278,56.017,2.353,82.133-5.9,16.043-5.081,31.535-9.525,48.076-12.727,17.794-3.447,46.445-5.955,57.28-24.637,8.1-13.961,2.547-42.659,2.253-59.634-.314-18.617,2.814-32.424,13.584-45.746,6.772-8.39,37.835-38.844,34.245-47.625-3.415-8.365-25.061-9.647-34.419-11.821-29.579-6.9-59.553-9.292-89.64-8.921-46.6.571-93.37,6.372-139.241,16.338-18.964,4.142-38.563,8.43-56.678,16.706-12.2,5.579-22.374,15.472-34.492,21.239C111.728,70.862,75.03,82.1,40.2,98.939c-11.177,5.416-47.6,19.834-38.865,42.054,7.28,18.552,32.039,24.193,44.2,36.631C66.238,198.829,91.012,202.1,117.4,206.506Z" transform="translate(898.587 574.344) rotate(180)" fill="none" stroke="#5acef2" stroke-miterlimit="10" stroke-width="5"/>
      <path id="Shape-38" data-name="Shape" d="M73.514,165.206a857.826,857.826,0,0,0,115.728,7.762c24.946.073,51.263.488,75.742-6.355,12.3-3.434,22.982-11.467,34.619-17.194,11.983-5.891,28.52-12.466,33.7-25.973,4.867-12.694,3.049-31.213,7.323-46.519,3.8-13.581,11.757-21.969,20.326-31.148,5.459-5.867,33.494-31.263,30.249-36.873C387.726,2.9,370.89,3.389,362.129,2.56A554.136,554.136,0,0,0,289.562.339c-33.034,1.237-66.322,4.687-98.784,12.5-23.033,5.536-40.4,18.715-61.868,28.382C101.095,53.773,72.28,63.7,44.732,77.436,31.007,84.284,10.688,93.088,3.658,110.753c-2.7,6.77-5.326,23.989-2.317,30.758,3.615,8.137,17.07,11.587,23.421,13.678C40.673,160.4,57.324,162.943,73.514,165.206Z" transform="translate(824.446 543.703) rotate(180)" fill="none" stroke="#ff8062" stroke-miterlimit="10" stroke-width="5"/>
      <path id="Shape-39" data-name="Shape" d="M60.763,131.446c47.62,6.54,101.425,12.091,149.19-1.071,19.3-5.313,38.527-21.056,46.4-42.507,4.079-11.093,4.956-24.3,11.046-35.047C271.907,44.876,277.645,37.7,283.3,31.01c3.188-3.777,23.614-24.468,19.672-28.164-4.158-3.9-14.361-2.625-21.329-2.722a470.264,470.264,0,0,0-50.091,2.093C212.427,4,192.845,6.3,174.293,12.55c-14.966,5.068-28.6,15.738-43.176,22.073C92.806,51.4,52.433,64.548,16.465,89.393,8.813,94.674-6.319,102.58,2.874,114.515,14.312,129.386,46.05,129.436,60.763,131.446Z" transform="translate(776.007 522.936) rotate(180)" fill="none" stroke="#f1b170" stroke-miterlimit="10" stroke-width="5"/>
      <path id="Shape-40" data-name="Shape" d="M42.961,101.87c33.907,4.579,71.525,6.73,105.569-2.7,17.24-4.774,32.622-14.719,40.128-33.969,5.373-13.721,6.821-29.033,14.164-42.218,2.6-4.652,12.149-17.707,7.442-20.557-10.074-6.129-32.56.925-46.536,4.141-21.034,4.872-38.6,18.51-58.6,26.6C74.452,45.557,35.579,52.182,7.621,73.315-19.323,93.751,33.067,100.529,42.961,101.87Z" transform="translate(716.694 505.146) rotate(180)" fill="none" stroke="#5be7c3" stroke-miterlimit="10" stroke-width="5"/>
      <path id="Shape-41" data-name="Shape" d="M24.4,70.9c28.767,4.119,79.939,6.154,96.352-26.987C123.8,37.764,132.205,3.792,124.079.759,117.382-1.73,106.871,2.38,99.3,6.223,85.227,13.334,72.019,21.085,57.474,26.955c-12.384,4.994-25.066,9.6-37.288,15.405C15,44.8,5.249,47.751,1.995,53.295-6.765,68.214,15.639,69.656,24.4,70.9Z" transform="translate(659.359 485.38) rotate(180)" fill="#01002d" stroke="#707070" stroke-width="5"/>
    </g>
  </g>
</svg>
